inDegrees=yes
name=IK-live
DataType=double
version=3
OpenSimVersion=4.1
endheader
time	pelvis_tilt	pelvis_list	pelvis_rotation	pelvis_tx	pelvis_ty	pelvis_tz	hip_flexion_r	hip_adduction_r	hip_rotation_r	knee_angle_r	ankle_angle_r	subtalar_angle_r	mtp_angle_r	hip_flexion_l	hip_adduction_l	hip_rotation_l	knee_angle_l	ankle_angle_l	subtalar_angle_l	mtp_angle_l	lumbar_extension	lumbar_bending	lumbar_rotation	neck_flex	neck_latbend	neck_rot	arm_flex_r	arm_add_r	arm_rot_r	elbow_flex_r	pro_sup_r	wrist_flex_r	wrist_dev_r	arm_flex_l	arm_add_l	arm_rot_l	elbow_flex_l	pro_sup_l	wrist_flex_l	wrist_dev_l
13.7573649	0.001608136589127672	-0.0004523096267195068	59.88871462847835	0	1	0	-0.0006411168967897108	0.001914500906210728	-0.0004348504706074767	0.0004109864570786219	-0.0003896386525874588	-0.0005798189424692791	0	-0.0007073002852204978	-0.002079108767036458	-0.0001379668266788288	-0.0001990181802302552	0.001242499596566848	0.0008450345046805457	0	-0.0002299785678141663	0.002141552108881823	-0.0006658100272858858	-0.0005980434893352152	-0.0006903480448952567	0.001082022676241087	-0.1434882035195753	-0.04047294871394027	-0.1729206793247198	0.2926260433330781	0.253962919949573	-0.1415958066491657	-0.03849417823987204	-0.1434808083669394	-0.03956239374524925	-0.1744126488115612	0.2929375004463979	0.2543334130331598	-0.1420857398911964	-0.03870862746936583
15.807167	0.2117213472383001	0.6628692065171599	59.56461486048451	0	1	0	-0.4898139769352385	0.07642318311409518	0.3201592729244198	0.3317354579737455	-0.3498235012205733	-0.06051634434048664	0	-0.327718331485805	0.1570301429970682	-0.07154084964573947	0.04933317445007364	-0.2936345747462563	-0.03264199701262867	0	-0.5187792625044274	-0.06178561086876409	-0.289344333439135	-0.4976269266755579	-0.1750529711409358	1.385497850499851	0.0495071959841079	0.2340645606002339	-2.462047997749186	0.2643325873353772	0.01232701692589269	0.1397389517911065	-0.04542456768288695	0.2815174847890808	-0.1559713708764654	-0.2648096376536789	0.2525956716349843	0.09223231059583881	-0.2419188430025483	-0.3208815975523472
15.857229	0.2101854911123985	0.6849357452747833	59.5728904377694	0	1	0	-0.515170058822654	0.06624084558497431	0.3220007757079562	0.3371766361814922	-0.3362417084884213	-0.05929047350592898	0	-0.3565267367729019	0.1592689208174067	-0.06177216607789253	0.07182509490056053	-0.2927521180066651	-0.01947347558286523	0	-0.538271402947461	-0.07369189005262064	-0.3142983913715351	-0.5825692779789106	-0.1882677086759522	1.409734762147268	0.07255462569162568	0.2266867931398639	-2.450474673796862	0.2740627185720841	0.01233246795653087	0.1403734830325997	-0.04308655054722715	0.305588406822162	-0.1689647101903346	-0.396964140218892	0.240695447353475	0.07978722572325869	-0.2588366290417576	-0.3551935114159074
15.9071671	0.2189948027745608	0.7105550897709163	59.57606919469311	0	1	0	-0.5560934101665289	0.06604082880319501	0.3292314277025747	0.3609068012678591	-0.3415912565508073	-0.06468697949618799	0	-0.3840109215396217	0.1609946705931737	-0.03766630514388342	0.09305402084864266	-0.3071040774922664	-0.03397807509004469	0	-0.5368836271380472	-0.106123367508865	-0.3217423832949187	-0.6841877379981125	-0.1912067477035598	1.434289014723188	0.02761077061955263	0.2406742508044461	-2.471852271177173	0.2868034973635907	0.01204738125645388	0.1420993907533545	-0.02164536783344717	0.2808848678502187	-0.1793082537896794	-0.4722895801651556	0.2450177517437524	0.08324895018112181	-0.2493705092914076	-0.3302122204491093
15.957434	0.2232351744366645	0.7134923827379992	59.5837591183139	0	1	0	-0.5529155135382424	0.06859484302785471	0.3197491255094674	0.3557018075387574	-0.3392622198731226	-0.05580003005100711	0	-0.3782849227526306	0.1581638621548937	-0.02628957541359931	0.09577824439788639	-0.319894765802161	-0.03464850425553988	0	-0.5475187265581158	-0.1053508154709787	-0.3314471723419553	-0.6635134022607215	-0.2394795180758924	1.493938119261796	0.02482684263021877	0.1954942717053238	-2.45955897545599	0.2959344416902959	0.01179326747792505	0.1599996709264827	-0.06874351396440864	0.2638286667195363	-0.1476928436998327	-0.4912656763936401	0.2375370705256147	0.07784342533011952	-0.2428729288919357	-0.3347923788264356
16.0072806	0.2117570312968014	0.6989988369724273	59.60131646960036	0	1	0	-0.5286735341684984	0.06930498360582221	0.3093727514958142	0.3509563835681737	-0.3329488249894252	-0.05858567387009784	0	-0.3490727866726895	0.1563896369138786	-0.01135024166418313	0.08258180221858621	-0.3136442820600135	-0.0326317427706254	0	-0.5618816446926646	-0.1312538024522859	-0.3308044302067639	-0.6118452908015205	-0.2398942355391618	1.521873021445999	0.03806822474751349	0.1897622433998063	-2.430237986499038	0.2944487248503254	0.01175725285708528	0.1259234897795958	-0.04167426458427448	0.2774118237783546	-0.1492236776657393	-0.4375095108725359	0.2386821318600119	0.08217402299900181	-0.2336704438656874	-0.3458992194304567
16.0573078	0.2060876044525075	0.7073708846112172	59.60283613430438	0	1	0	-0.5363158308541841	0.07446956747621772	0.3174929585641083	0.360813348977196	-0.3378447012208594	-0.06684834012595293	0	-0.3650670383876201	0.1581650567084427	-0.007064786735079372	0.1043980111363222	-0.3096567112779939	-0.02098606324711364	0	-0.5934612535317842	-0.1606873140325739	-0.3151025633394043	-0.6053835270378274	-0.261160846588452	1.547404335144564	0.08817884092044331	0.1947873868204595	-2.481317419543639	0.2987759005268708	0.01163724579582791	0.14031579543664	-0.05493186552729612	0.2935720061333507	-0.1456972714941177	-0.412104537822112	0.2321262845265291	0.08176463863322082	-0.2510741681081419	-0.3408867990564943
16.1070879	0.1998286310867007	0.6999284527074493	59.61442009179657	0	1	0	-0.5413044464330248	0.07695522247972861	0.3171942146250433	0.3774816262100179	-0.3427092550681679	-0.08069685433518442	0	-0.3650151422653545	0.1515968082578127	-0.004634038932088991	0.1229511449084391	-0.3203809935437251	-0.003058250119246421	0	-0.5832282123945243	-0.1605362514967801	-0.3592597568397891	-0.6620570415044561	-0.3083503407027509	1.602646892548545	0.1038607775722632	0.1870558003782123	-2.460688889406485	0.2998846300866503	0.01178226844994434	0.1378144069693884	-0.05002493013530585	0.2825783876172762	-0.1290587662858899	-0.4200590585398669	0.2308426267977446	0.0794690338080332	-0.2346390415273876	-0.3527523562697277
16.1570584	0.2079679355683962	0.7039482690504928	59.61063517492433	0	1	0	-0.5508260962253709	0.08638175138055182	0.3329693299377177	0.3680801422249412	-0.3403757268953908	-0.09501342899854605	0	-0.3697627985109471	0.1481678665959937	-0.01959282770762103	0.1303525629984396	-0.3317043446849213	0.008312738268003566	0	-0.6063540421903163	-0.1582683453621952	-0.3685225262071691	-0.6605203929951138	-0.3389771751718232	1.662749292965518	0.08948155299297977	0.2039456448819316	-2.481452191247334	0.3086308846159295	0.01150714820971648	0.1366402637576782	-0.06393825330299469	0.3109779690607558	-0.118410449848959	-0.4635783914934434	0.2364659018658415	0.07778252764262174	-0.2210442792000518	-0.348301221181776
16.2088017	0.2195724740429768	0.7038256111689877	59.6039811190275	0	1	0	-0.5686399694980866	0.108390591792232	0.350416122523783	0.3766934822113943	-0.3458997835073346	-0.1265367088524911	0	-0.3798195767488564	0.1395793941915989	-0.00948013492147993	0.1195864858974613	-0.31756911652097	-0.00733048024369317	0	-0.6456353435065347	-0.1428032536356261	-0.3476948903308864	-0.5989047574457522	-0.3377936019219653	1.699982482267506	0.1024020582993006	0.1836542372754463	-2.488929059821992	0.3009757013337653	0.01135123972788376	0.1320675289268679	-0.06108283277987787	0.3280207563489894	-0.1080171908650513	-0.4282356853461277	0.2357089994100035	0.07416062204808034	-0.2415823515939951	-0.3429814779011648
16.2368973	0.2200097870367196	0.7026294306099007	59.59781551248793	0	1	0	-0.5717745398480335	0.1066782375749331	0.3489933885772956	0.3734338884391132	-0.3414038514684154	-0.1213756032951113	0	-0.3776585272076464	0.1409800857204983	-0.01327055290863773	0.1120207354816942	-0.3157517600411561	-0.01225230682605656	0	-0.6508312516668929	-0.1323911935680061	-0.3368948723756831	-0.5900556466336799	-0.3407032851193526	1.708000412504761	0.107323494077213	0.1754815583333076	-2.492496465252421	0.2993682680813757	0.01129228907216191	0.1355056690902545	-0.04379081223976895	0.3251871375019794	-0.09528442818331519	-0.3904092431186014	0.2341902909298362	0.07508809263543194	-0.258183234820953	-0.3553152227287258
16.3074175	0.2087995058323222	0.702718034569811	59.60318605596691	0	1	0	-0.5664521489422867	0.08714726435625406	0.3215714810053922	0.3577360271888524	-0.3333099291757218	-0.0991405035458028	0	-0.375576421095359	0.152822464620688	-0.02319668190628818	0.08494450744947911	-0.2888314012175119	-0.00529213186027045	0	-0.5885457455807812	-0.1142848416105498	-0.3512728341710161	-0.6205626977348537	-0.3437655112986905	1.755348495618017	0.04079753828701881	0.1571995299157817	-2.4197651149985	0.311726735939751	0.01126115381689752	0.1484142894790177	-0.0547965253336123	0.272284675160872	-0.05302996765162459	-0.3996748947085828	0.2339147398564211	0.07406766035908439	-0.2524177771945464	-0.3131870083331913
